<?xml version="1.0" encoding="UTF-8"?>
<svg xmlns="http://www.w3.org/2000/svg" viewBox="0 0 876.58 171.09">
  <defs>
    <style>
      .cls-1 {
        mix-blend-mode: multiply;
        opacity: .6;
      }

      .cls-2 {
        isolation: isolate;
      }
    </style>
  </defs>
  <g class="cls-2">
    <g id="Layer_2" data-name="Layer 2">
      <g id="Layer_1-2" data-name="Layer 1">
        <g>
          <g>
            <path d="M22.48,105.89c.59,27.18,15.72,46.36,39.95,46.36,18.05,0,26.91-7.47,32.4-16.39,1.85-3.01,5.14-4.83,8.67-4.83h0c8.15,0,13.17,9.16,8.54,15.86-8.86,12.81-24.32,23.9-50.51,23.9C18.33,170.79,0,136.73,0,102.56,0,63.24,21.93,32.25,62.3,32.25c44.86,0,59.89,35.1,59.89,64.23,0,.03,0,.07,0,.1,0,5.15-4.18,9.31-9.33,9.31H22.48ZM99.33,89.86c-.56-20.21-10.98-39.85-37.33-39.85-24.95,0-36.45,16.74-38.83,39.85h76.16Z"/>
            <path d="M283.36,37.23V8.81c0-4.85,3.93-8.79,8.79-8.79h4.72c4.85,0,8.79,3.93,8.79,8.79v23.44h19.68c4.85,0,8.79,3.93,8.79,8.79v.58c0,4.85-3.93,8.79-8.79,8.79h-19.68v81.64c0,13.83,3.39,20.67,16.23,20.67.97,0,2.06-.01,3.22-.06,4.94-.18,9.03,3.84,9.03,8.78h0c0,4.43-3.3,8.15-7.69,8.73-3.87.51-7.98.63-11.86.63-22.36,0-31.21-10.91-31.21-34.1V37.23Z"/>
            <path d="M388.79,37.58c7.64-3.87,15.81-6.14,23.84-5.06,5.13.69,8.93,5.12,8.93,10.29h0c0,5.31-3.87,9.82-9.12,10.63-23.18,3.59-38.49,21.36-38.49,52.45v53.83c0,6.11-4.96,11.07-11.07,11.07h-.13c-6.11,0-11.07-4.96-11.07-11.07v-59.19c0-25.76,14.13-51.32,37.11-62.96Z"/>
            <path d="M450.27,0h1.14c5.83,0,10.56,4.73,10.56,10.56h0c0,5.83-4.73,10.56-10.56,10.56h-1.14c-5.83,0-10.56-4.73-10.56-10.56h0c0-5.83,4.73-10.56,10.56-10.56ZM450.27,32.25h1.14c5.83,0,10.56,4.73,10.56,10.56v117.42c0,5.83-4.73,10.56-10.56,10.56h-1.14c-5.83,0-10.56-4.73-10.56-10.56V42.81c0-5.83,4.73-10.56,10.56-10.56Z"/>
            <path d="M502.6,105.89c.59,27.18,15.72,46.36,39.95,46.36,18.05,0,26.92-7.47,32.4-16.39,1.85-3.01,5.14-4.83,8.67-4.83h0c8.15,0,13.17,9.16,8.54,15.86-8.86,12.81-24.32,23.9-50.51,23.9-43.19,0-61.52-34.06-61.52-68.23,0-39.32,21.93-70.31,62.3-70.31,44.86,0,59.9,35.1,59.9,64.23,0,.03,0,.07,0,.1,0,5.15-4.18,9.31-9.33,9.31h-90.39ZM579.45,89.86c-.56-20.21-10.98-39.85-37.33-39.85-24.96,0-36.46,16.74-38.83,39.85h76.16Z"/>
            <path d="M631.57,32.25c4.49,0,8.49,2.83,9.97,7.06,15.52,44.29,32.53,95.74,36.72,110.67h.29c3.19-12.52,14.07-50.9,37.06-110.93,1.57-4.09,5.5-6.8,9.88-6.8h0c7.45,0,12.57,7.5,9.84,14.44l-40.91,112.73c-2.69,6.86-9.32,11.38-16.69,11.38h0c-7.44,0-14.11-4.59-16.75-11.55l-40.41-112.66c-2.64-6.92,2.47-14.34,9.88-14.34h1.11Z"/>
            <path d="M776.86,105.89c.59,27.18,15.72,46.36,39.95,46.36,18.05,0,26.92-7.47,32.4-16.39,1.85-3.01,5.14-4.83,8.67-4.83h0c8.15,0,13.17,9.16,8.54,15.86-8.86,12.81-24.32,23.9-50.51,23.9-43.19,0-61.52-34.06-61.52-68.23,0-39.32,21.93-70.31,62.3-70.31,44.86,0,59.9,35.1,59.9,64.23,0,.03,0,.07,0,.1,0,5.15-4.18,9.31-9.33,9.31h-90.39ZM853.71,89.86c-.56-20.21-10.98-39.85-37.33-39.85-24.96,0-36.46,16.74-38.83,39.85h76.16Z"/>
            <g>
              <path d="M203.14,97.24c10.58,0,20.69-4.43,27.9-12.22l30.84-33.33c7.24-7.83.16-18.83-12.12-18.83h0c-4.92,0-9.52,1.9-12.33,5.09l-34.1,38.79-34.76-38.87c-2.81-3.14-7.38-5.01-12.26-5.01h-.16c-12.32,0-19.39,11.07-12.07,18.89l31.32,33.45c7.2,7.69,17.24,12.05,27.74,12.05h0Z"/>
              <path d="M202.55,106.71c-10.58,0-20.69,4.43-27.9,12.22l-30.84,33.33c-7.24,7.83-.16,18.83,12.12,18.83h0c4.92,0,9.52-1.9,12.33-5.09l34.1-38.79,34.76,38.87c2.81,3.14,7.38,5.01,12.26,5.01h.16c12.32,0,19.39-11.07,12.07-18.89l-31.32-33.45c-7.2-7.69-17.24-12.05-27.74-12.05h0Z"/>
              <path class="cls-1" d="M203.32,76.74s-12.27,16.18-27.92,8.45l-32.26-34.59,26.68-11.32,33.5,37.46Z"/>
              <path class="cls-1" d="M202.33,127.25s12.27-16.18,27.92-8.45l32.26,34.59-26.68,11.32-33.5-37.46Z"/>
            </g>
          </g>
          <path d="M847.83,15.35c0-1.95.38-3.8,1.13-5.54.75-1.75,1.77-3.28,3.07-4.6,1.3-1.32,2.82-2.35,4.57-3.11,1.74-.75,3.59-1.13,5.54-1.13s3.86.38,5.6,1.13c1.74.75,3.27,1.79,4.57,3.11,1.3,1.32,2.34,2.85,3.11,4.6s1.16,3.59,1.16,5.54-.39,3.8-1.16,5.54-1.81,3.27-3.11,4.57-2.82,2.32-4.57,3.08c-1.75.75-3.62,1.13-5.6,1.13s-3.8-.38-5.54-1.13c-1.75-.75-3.27-1.78-4.57-3.08s-2.32-2.82-3.07-4.57c-.75-1.75-1.13-3.59-1.13-5.54ZM851.24,15.35c0,1.5.3,2.91.88,4.23.59,1.32,1.38,2.47,2.37,3.44.99.97,2.15,1.74,3.47,2.28,1.32.55,2.71.82,4.17.82s2.91-.27,4.23-.82c1.32-.55,2.48-1.31,3.47-2.28.99-.97,1.78-2.12,2.34-3.44.57-1.32.85-2.73.85-4.23s-.28-2.91-.85-4.23c-.57-1.32-1.35-2.48-2.34-3.47-.99-.99-2.15-1.78-3.47-2.34-1.32-.57-2.73-.85-4.23-.85s-2.85.28-4.17.85c-1.32.57-2.48,1.35-3.47,2.34-.99,1-1.79,2.15-2.37,3.47-.59,1.32-.88,2.73-.88,4.23ZM857.92,9.57c0-.3.17-.49.5-.55.39-.06.89-.12,1.48-.18.6-.06,1.18-.09,1.76-.09.94,0,1.73.09,2.35.27.62.18,1.18.44,1.67.78.79.55,1.19,1.4,1.19,2.56,0,.67-.14,1.23-.43,1.69-.29.46-.71.87-1.26,1.23.55.49.93,1.16,1.14,2.01l.91,3.01c.03.06.05.14.05.23,0,.34-.17.5-.5.5h-1.74c-.06,0-.14-.03-.23-.09-.09-.06-.14-.12-.14-.18-.3-.43-.64-1.35-1-2.79-.3-1.16-.98-1.75-2.01-1.78h-1.05v4.25c0,.4-.17.59-.5.59h-1.64c-.37,0-.55-.2-.55-.59v-10.87ZM861.75,14.05c.73,0,1.31-.14,1.74-.41.43-.27.64-.64.64-1.1,0-.52-.23-.9-.69-1.14-.46-.24-1.04-.37-1.74-.37h-.57c-.2,0-.37.03-.53.09v2.92h1.14Z"/>
        </g>
      </g>
    </g>
  </g>
</svg>